<svg width="52" height="44" viewBox="0 0 52 44" fill="none" xmlns="http://www.w3.org/2000/svg">
<path d="M24.6 0C24.9792 0 25.3073 0.136068 25.5844 0.408203C25.8615 0.680339 26 1.0026 26 1.375V16.5C26 17.2591 25.8542 17.9681 25.5625 18.627C25.2708 19.2858 24.8698 19.8659 24.3594 20.3672C23.849 20.8685 23.251 21.2624 22.5656 21.5488C21.8802 21.8353 21.1583 21.9857 20.4 22V42.625C20.4 42.9974 20.2615 43.3197 19.9844 43.5918C19.7073 43.8639 19.3792 44 19 44C18.6208 44 18.2927 43.8639 18.0156 43.5918C17.7385 43.3197 17.6 42.9974 17.6 42.625V22C16.8271 22 16.1052 21.8568 15.4344 21.5703C14.7635 21.2839 14.1729 20.89 13.6625 20.3887C13.1521 19.8874 12.751 19.3073 12.4594 18.6484C12.1677 17.9896 12.0146 17.2734 12 16.5V1.375C12 1.0026 12.1385 0.680339 12.4156 0.408203C12.6927 0.136068 13.0208 0 13.4 0C13.7792 0 14.1073 0.136068 14.3844 0.408203C14.6615 0.680339 14.8 1.0026 14.8 1.375V16.5C14.8 16.8867 14.8729 17.2448 15.0187 17.5742C15.1646 17.9036 15.3615 18.1901 15.6094 18.4336C15.8573 18.6771 16.1562 18.8776 16.5062 19.0352C16.8562 19.1927 17.2208 19.2643 17.6 19.25V1.375C17.6 1.0026 17.7385 0.680339 18.0156 0.408203C18.2927 0.136068 18.6208 0 19 0C19.3792 0 19.7073 0.136068 19.9844 0.408203C20.2615 0.680339 20.4 1.0026 20.4 1.375V19.25C20.7937 19.25 21.1583 19.1784 21.4937 19.0352C21.8292 18.8919 22.1208 18.6986 22.3687 18.4551C22.6167 18.2116 22.8208 17.918 22.9812 17.5742C23.1417 17.2305 23.2146 16.8724 23.2 16.5V1.375C23.2 1.0026 23.3385 0.680339 23.6156 0.408203C23.8927 0.136068 24.2208 0 24.6 0ZM40 0V42.625C40 42.9974 39.8615 43.3197 39.5844 43.5918C39.3073 43.8639 38.9792 44 38.6 44C38.2208 44 37.8927 43.8639 37.6156 43.5918C37.3385 43.3197 37.2 42.9974 37.2 42.625V30.25C36.6604 30.25 36.0771 30.2572 35.45 30.2715C34.8229 30.2858 34.2031 30.2786 33.5906 30.25C32.9781 30.2214 32.3802 30.1354 31.7969 29.9922C31.2135 29.849 30.7031 29.627 30.2656 29.3262C29.8281 29.0254 29.4708 28.6172 29.1938 28.1016C28.9167 27.5859 28.7854 26.9271 28.8 26.125V9.625C28.8 8.29297 29.0552 7.04688 29.5656 5.88672C30.076 4.72656 30.776 3.70964 31.6656 2.83594C32.5552 1.96224 33.5906 1.27474 34.7719 0.773438C35.9531 0.272135 37.2292 0.0143229 38.6 0H40ZM37.2 2.87891C36.3833 3.03646 35.6396 3.32292 34.9688 3.73828C34.2979 4.15365 33.7073 4.66927 33.1969 5.28516C32.6865 5.90104 32.2927 6.56706 32.0156 7.2832C31.7385 7.99935 31.6 8.77995 31.6 9.625V26.125C31.6 26.4974 31.7385 26.8197 32.0156 27.0918C32.2927 27.3639 32.6208 27.5 33 27.5H37.2V2.87891Z" fill="white"/>
</svg>
